name N:\Shared_Data\HIL\Data Collection\CoPD-X-MoreData\processed\iteration012\grf0012.mot
datacolumns 19
datarows 100
range 2326.684464 2326.849466
endheader
time	ground_force1_vx	ground_force1_vy	ground_force1_vz	ground_force1_px	ground_force1_py	ground_force1_pz	ground_force2_vx	ground_force2_vy	ground_force2_vz	ground_force2_px	ground_force2_py	ground_force2_pz	ground_torque1_x	ground_torque1_y	ground_torque1_z	ground_torque2_x	ground_torque2_y	ground_torque2_z	
2326.684464	29.38870111	720.5155201	45.24754924	8.747436298	0	0.1424622785	0	0	0	0	0	0	0	3.25074774	0	0	0	0	
2326.686127	28.65546107	717.9607905	44.93572907	8.747418205	0	0.1424319088	0	0	0	0	0	0	0	3.275784719	0	0	0	0	
2326.6878	27.93736365	715.4787943	44.62567858	8.747404692	0	0.1424007633	0	0	0	0	0	0	0	3.299357534	0	0	0	0	
2326.689467	27.23416012	713.0727925	44.31772311	8.747396546	0	0.142368873	0	0	0	0	0	0	0	3.32153811	0	0	0	0	
2326.691132	26.54557815	710.7457757	44.01220043	8.747394562	0	0.1423362747	0	0	0	0	0	0	0	3.342403825	0	0	0	0	
2326.692794	25.87132262	708.5004612	43.70945983	8.74739953	0	0.1423030115	0	0	0	0	0	0	0	3.362037142	0	0	0	0	
2326.69446	25.21107646	706.3392906	43.40986115	8.747412236	0	0.1422691329	0	0	0	0	0	0	0	3.380525242	0	0	0	0	
2326.69613	24.56450133	704.2644283	43.11377355	8.747433443	0	0.1422346945	0	0	0	0	0	0	0	3.39795966	0	0	0	0	
2326.6978	23.93123838	702.2777616	42.82157416	8.747463895	0	0.1421997585	0	0	0	0	0	0	0	3.414435927	0	0	0	0	
2326.69946	23.31090884	700.3809013	42.53364662	8.747504299	0	0.1421643932	0	0	0	0	0	0	0	3.430053213	0	0	0	0	
2326.701129	22.70311476	698.5751844	42.25037938	8.747555323	0	0.1421286734	0	0	0	0	0	0	0	3.444913987	0	0	0	0	
2326.702797	22.10743958	696.8616761	41.97216398	8.747617586	0	0.1420926795	0	0	0	0	0	0	0	3.459123671	0	0	0	0	
2326.704467	21.5234488	695.2411745	41.69939316	8.747691655	0	0.142056498	0	0	0	0	0	0	0	3.472790315	0	0	0	0	
2326.70613	20.95069059	693.7142156	41.43245891	8.747778032	0	0.1420202208	0	0	0	0	0	0	0	3.48602427	0	0	0	0	
2326.707801	20.38869646	692.2810788	41.17175043	8.747877156	0	0.1419839447	0	0	0	0	0	0	0	3.498937866	0	0	0	0	
2326.709459	19.83698194	690.9417942	40.91765206	8.747989389	0	0.1419477716	0	0	0	0	0	0	0	3.511645106	0	0	0	0	
2326.711133	19.29504723	689.6961499	40.67054112	8.748115021	0	0.1419118074	0	0	0	0	0	0	0	3.524261352	0	0	0	0	
2326.712798	18.76237797	688.543701	40.43078583	8.748254259	0	0.1418761618	0	0	0	0	0	0	0	3.53690303	0	0	0	0	
2326.714461	18.23844598	687.4837786	40.19874311	8.748407224	0	0.1418409479	0	0	0	0	0	0	0	3.549687334	0	0	0	0	
2326.716128	17.72271001	686.5154999	39.97475653	8.748573955	0	0.1418062813	0	0	0	0	0	0	0	3.562731944	0	0	0	0	
2326.717795	17.21461665	685.637779	39.75915418	8.7487544	0	0.1417722797	0	0	0	0	0	0	0	3.576154753	0	0	0	0	
2326.719464	16.71360108	684.8493382	39.55224672	8.748948422	0	0.1417390622	0	0	0	0	0	0	0	3.590073602	0	0	0	0	
2326.72113	16.21908807	684.1487199	39.35432539	8.749155792	0	0.1417067487	0	0	0	0	0	0	0	3.604606033	0	0	0	0	
2326.722792	15.73049286	683.5342988	39.16566021	8.749376198	0	0.1416754592	0	0	0	0	0	0	0	3.619869057	0	0	0	0	
2326.72446	15.24722211	683.004295	38.98649821	8.749609242	0	0.1416453131	0	0	0	0	0	0	0	3.63597894	0	0	0	0	
2326.726134	14.76867499	682.556787	38.81706187	8.749854443	0	0.1416164286	0	0	0	0	0	0	0	3.653050996	0	0	0	0	
2326.727795	14.29424412	682.1897252	38.65754759	8.750111241	0	0.1415889218	0	0	0	0	0	0	0	3.671199413	0	0	0	0	
2326.729466	13.82331675	681.9009458	38.50812436	8.750379004	0	0.1415629064	0	0	0	0	0	0	0	3.690537085	0	0	0	0	
2326.731134	13.35527581	681.6881845	38.36893264	8.750657028	0	0.1415384927	0	0	0	0	0	0	0	3.711175461	0	0	0	0	
2326.732793	12.8895011	681.5490908	38.24008326	8.750944545	0	0.1415157872	0	0	0	0	0	0	0	3.733224415	0	0	0	0	
2326.734461	12.42537051	681.4812419	38.12165664	8.75124073	0	0.141494892	0	0	0	0	0	0	0	3.756792126	0	0	0	0	
2326.73613	11.9622612	681.482157	38.01370212	8.751544706	0	0.1414759039	0	0	0	0	0	0	0	3.781984961	0	0	0	0	
2326.737796	11.49955095	681.549311	37.91623743	8.751855551	0	0.1414589145	0	0	0	0	0	0	0	3.80890738	0	0	0	0	
2326.739461	11.03661942	681.6801488	37.82924846	8.752172304	0	0.1414440089	0	0	0	0	0	0	0	3.837661838	0	0	0	0	
2326.741135	10.57284954	681.8720988	37.75268908	8.752493977	0	0.1414312662	0	0	0	0	0	0	0	3.868348693	0	0	0	0	
2326.742794	10.10762887	682.1225863	37.68648128	8.752819556	0	0.1414207581	0	0	0	0	0	0	0	3.901066116	0	0	0	0	
2326.744462	9.640351044	682.4290468	37.63051544	8.753148015	0	0.1414125494	0	0	0	0	0	0	0	3.935910009	0	0	0	0	
2326.746127	9.170417204	682.7889388	37.58465076	8.753478318	0	0.141406697	0	0	0	0	0	0	0	3.972973911	0	0	0	0	
2326.747797	8.697237456	683.199756	37.54871596	8.753809432	0	0.1414032503	0	0	0	0	0	0	0	4.012348917	0	0	0	0	
2326.749463	8.22023235	683.6590392	37.5225101	8.754140331	0	0.1414022504	0	0	0	0	0	0	0	4.054123593	0	0	0	0	
2326.751132	7.738834357	684.1643878	37.50580365	8.754470006	0	0.1414037303	0	0	0	0	0	0	0	4.098383888	0	0	0	0	
2326.752793	7.252489345	684.7134707	37.49833968	8.754797468	0	0.1414077149	0	0	0	0	0	0	0	4.145213059	0	0	0	0	
2326.754461	6.760658037	685.3040359	37.49983525	8.755121762	0	0.1414142203	0	0	0	0	0	0	0	4.194691594	0	0	0	0	
2326.756129	6.262817447	685.9339209	37.50998301	8.755441965	0	0.1414232547	0	0	0	0	0	0	0	4.246897139	0	0	0	0	
2326.757801	5.758462291	686.6010606	37.52845288	8.7557572	0	0.1414348175	0	0	0	0	0	0	0	4.301904434	0	0	0	0	
2326.759464	5.247106348	687.303496	37.55489397	8.756066638	0	0.1414489002	0	0	0	0	0	0	0	4.359785255	0	0	0	0	
2326.761126	4.728283784	688.0393814	37.58893655	8.756369503	0	0.1414654859	0	0	0	0	0	0	0	4.420608361	0	0	0	0	
2326.762801	4.201550409	688.8069906	37.63019426	8.756665079	0	0.1414845499	0	0	0	0	0	0	0	4.48443945	0	0	0	0	
2326.76446	3.666484887	689.6047229	37.67826632	8.756952713	0	0.1415060594	0	0	0	0	0	0	0	4.551341114	0	0	0	0	
2326.76613	3.122689869	690.4311078	37.73273991	8.757231819	0	0.1415299742	0	0	0	0	0	0	0	4.621372798	0	0	0	0	
2326.7678	2.569793062	691.2848091	37.79319264	8.757501883	0	0.1415562468	0	0	0	0	0	0	0	4.694590764	0	0	0	0	
2326.769464	2.007448218	692.1646278	37.85919503	8.757762466	0	0.1415848224	0	0	0	0	0	0	0	4.771048038	0	0	0	0	
2326.771133	1.435336055	693.0695045	37.9303131	8.758013202	0	0.1416156398	0	0	0	0	0	0	0	4.850794366	0	0	0	0	
2326.7728	0.8531650923	693.9985205	38.00611093	8.758253806	0	0.1416486309	0	0	0	0	0	0	0	4.933876144	0	0	0	0	
2326.774466	0.2606724114	694.9508985	38.08615331	8.75848407	0	0.1416837221	0	0	0	0	0	0	0	5.020336343	0	0	0	0	
2326.776133	-0.3423756704	695.9260018	38.1700083	8.75870387	0	0.1417208338	0	0	0	0	0	0	0	5.110214415	0	0	0	0	
2326.777796	-0.9561830037	696.9233334	38.25724977	8.758913159	0	0.1417598813	0	0	0	0	0	0	0	5.203546176	0	0	0	0	
2326.779466	-1.580923097	697.9425334	38.34745997	8.759111971	0	0.1418007751	0	0	0	0	0	0	0	5.300363668	0	0	0	0	
2326.781127	-2.216738691	698.9833759	38.44023194	8.759300419	0	0.1418434212	0	0	0	0	0	0	0	5.400695	0	0	0	0	
2326.782797	-2.863741417	700.0457655	38.53517189	8.759478697	0	0.1418877219	0	0	0	0	0	0	0	5.50456416	0	0	0	0	
2326.784462	-3.522011546	701.1297322	38.63190143	8.759647071	0	0.1419335759	0	0	0	0	0	0	0	5.61199081	0	0	0	0	
2326.786133	-4.191597819	702.235426	38.73005976	8.759805884	0	0.1419808792	0	0	0	0	0	0	0	5.722990056	0	0	0	0	
2326.787797	-4.872517374	703.3631107	38.82930564	8.75995555	0	0.1420295253	0	0	0	0	0	0	0	5.837572191	0	0	0	0	
2326.789463	-5.564755751	704.513157	38.92931927	8.76009655	0	0.1420794057	0	0	0	0	0	0	0	5.955742432	0	0	0	0	
2326.791131	-6.268266993	705.6860348	39.02980401	8.760229431	0	0.1421304106	0	0	0	0	0	0	0	6.07750063	0	0	0	0	
2326.792793	-6.982973827	706.8823046	39.13048794	8.760354801	0	0.1421824295	0	0	0	0	0	0	0	6.202840972	0	0	0	0	
2326.794468	-7.708767931	708.1026091	39.23112522	8.760473324	0	0.1422353513	0	0	0	0	0	0	0	6.331751673	0	0	0	0	
2326.796133	-8.445510281	709.3476638	39.33149731	8.760585718	0	0.1422890652	0	0	0	0	0	0	0	6.464214655	0	0	0	0	
2326.797799	-9.193031572	710.6182463	39.43141402	8.760692748	0	0.1423434613	0	0	0	0	0	0	0	6.600205233	0	0	0	0	
2326.799464	-9.951132709	711.9151871	39.53071429	8.760795222	0	0.1423984306	0	0	0	0	0	0	0	6.739691779	0	0	0	0	
2326.801125	-10.71958536	713.2393577	39.62926696	8.760893985	0	0.1424538659	0	0	0	0	0	0	0	6.882635404	0	0	0	0	
2326.802795	-11.49813258	714.5916603	39.72697115	8.760989915	0	0.1425096624	0	0	0	0	0	0	0	7.028989629	0	0	0	0	
2326.804461	-12.28648945	715.9730162	39.82375662	8.761083917	0	0.1425657177	0	0	0	0	0	0	0	7.17870006	0	0	0	0	
2326.806131	-13.08434379	717.3843538	39.9195839	8.761176917	0	0.1426219327	0	0	0	0	0	0	0	7.331704072	0	0	0	0	
2326.807792	-13.89135686	718.8265975	40.0144442	8.761269858	0	0.1426782116	0	0	0	0	0	0	0	7.487930494	0	0	0	0	
2326.809464	-14.70716419	720.3006553	40.10835919	8.761363693	0	0.1427344629	0	0	0	0	0	0	0	7.647299301	0	0	0	0	
2326.811125	-15.53137625	721.8074069	40.20138063	8.76145938	0	0.1427905991	0	0	0	0	0	0	0	7.80972132	0	0	0	0	
2326.812797	-16.36357931	723.3476922	40.29358979	8.761557874	0	0.1428465375	0	0	0	0	0	0	0	7.975097947	0	0	0	0	
2326.814464	-17.20333618	724.922299	40.38509668	8.761660128	0	0.1429022004	0	0	0	0	0	0	0	8.14332088	0	0	0	0	
2326.816127	-18.05018701	726.5319516	40.47603923	8.76176708	0	0.1429575156	0	0	0	0	0	0	0	8.314271875	0	0	0	0	
2326.817799	-18.90365006	728.177299	40.56658222	8.761879654	0	0.1430124161	0	0	0	0	0	0	0	8.487822521	0	0	0	0	
2326.819465	-19.76322248	729.8589039	40.65691605	8.761998752	0	0.1430668409	0	0	0	0	0	0	0	8.663834055	0	0	0	0	
2326.821133	-20.62838106	731.5772316	40.74725547	8.76212525	0	0.1431207352	0	0	0	0	0	0	0	8.842157201	0	0	0	0	
2326.822797	-21.49858297	733.3326396	40.83783807	8.762259993	0	0.1431740501	0	0	0	0	0	0	0	9.022632064	0	0	0	0	
2326.824464	-22.37326656	735.1253668	40.92892268	8.762403793	0	0.1432267432	0	0	0	0	0	0	0	9.205088054	0	0	0	0	
2326.826126	-23.25185203	736.9555247	41.02078766	8.762557424	0	0.1432787786	0	0	0	0	0	0	0	9.389343876	0	0	0	0	
2326.827798	-24.13374217	738.8230872	41.11372905	8.762721617	0	0.1433301268	0	0	0	0	0	0	0	9.575207566	0	0	0	0	
2326.829462	-25.01832311	740.7278826	41.20805865	8.762897059	0	0.143380765	0	0	0	0	0	0	0	9.762476594	0	0	0	0	
2326.831128	-25.90496502	742.6695854	41.30410193	8.763084392	0	0.1434306769	0	0	0	0	0	0	0	9.95093802	0	0	0	0	
2326.832796	-26.79302282	744.6477085	41.40219599	8.763284205	0	0.1434798527	0	0	0	0	0	0	0	10.14036872	0	0	0	0	
2326.834462	-27.68183691	746.6615969	41.50268732	8.76349704	0	0.1435282894	0	0	0	0	0	0	0	10.33053568	0	0	0	0	
2326.83613	-28.57073386	748.7104214	41.60592954	8.763723382	0	0.14357599	0	0	0	0	0	0	0	10.52119633	0	0	0	0	
2326.837794	-29.45902713	750.793173	41.71228115	8.763963667	0	0.1436229642	0	0	0	0	0	0	0	10.71209899	0	0	0	0	
2326.839467	-30.34601776	752.9086591	41.8221032	8.764218275	0	0.1436692276	0	0	0	0	0	0	0	10.90298329	0	0	0	0	
2326.841127	-31.23099513	755.0554989	41.93575691	8.76448753	0	0.1437148019	0	0	0	0	0	0	0	11.09358074	0	0	0	0	
2326.842797	-32.11323761	757.232121	42.05360138	8.764771704	0	0.1437597145	0	0	0	0	0	0	0	11.28361527	0	0	0	0	
2326.844463	-32.99201329	759.4367611	42.17599118	8.765071017	0	0.1438039984	0	0	0	0	0	0	0	11.47280386	0	0	0	0	
2326.846125	-33.86658069	761.6674609	42.3032741	8.765385634	0	0.1438476918	0	0	0	0	0	0	0	11.6608572	0	0	0	0	
2326.847793	-34.73618948	763.9220673	42.43578885	8.765715671	0	0.143890838	0	0	0	0	0	0	0	11.84748037	0	0	0	0	
2326.849466	-35.6000812	766.1982335	42.57386279	8.766061194	0	0.1439334849	0	0	0	0	0	0	0	12.03237354	0	0	0	0	
